<svg width="24" height="24" viewBox="0 0 24 24" fill="none" xmlns="http://www.w3.org/2000/svg">
<path fill-rule="evenodd" clip-rule="evenodd" d="M14.9465 9.96876C14.9465 12.7179 12.7179 14.9464 9.96879 14.9464C7.21968 14.9464 4.99108 12.7179 4.99108 9.96876C4.99108 7.21966 7.21968 4.99107 9.96879 4.99107C12.7179 4.99107 14.9465 7.21966 14.9465 9.96876ZM14.1422 15.5502C12.9788 16.4215 11.5341 16.9375 9.96879 16.9375C6.12003 16.9375 3 13.8175 3 9.96876C3 6.12002 6.12003 3 9.96879 3C13.8175 3 16.9376 6.12002 16.9376 9.96876C16.9376 11.5341 16.4215 12.9789 15.5501 14.1423L20.7309 19.3231C21.1018 19.694 21.0874 20.3099 20.6986 20.6987C20.3098 21.0875 19.6939 21.1019 19.323 20.731L14.1422 15.5502Z" fill="#898989"/>
</svg>
