<svg width="24" height="24" viewBox="0 0 24 24" fill="none" xmlns="http://www.w3.org/2000/svg">
<rect x="2" y="5" width="20" height="1" fill="#898989"/>
<path fill-rule="evenodd" clip-rule="evenodd" d="M4 5L4.94463 21.0587C4.97572 21.5873 5.41343 22 5.94291 22H18.0571C18.5866 22 19.0243 21.5873 19.0554 21.0587L20 5H4ZM5.06055 6L5.94291 21H18.0571L18.9394 6H5.06055Z" fill="#898989"/>
<rect x="9" y="9" width="1" height="9" fill="#898989"/>
<rect x="14" y="9" width="1" height="9" fill="#898989"/>
<path fill-rule="evenodd" clip-rule="evenodd" d="M15 3H9V5H15V3ZM9 2C8.44772 2 8 2.44772 8 3V6H16V3C16 2.44772 15.5523 2 15 2H9Z" fill="#898989"/>
</svg>
