<svg width="24" height="24" viewBox="0 0 24 24" fill="none" xmlns="http://www.w3.org/2000/svg">
<path fill-rule="evenodd" clip-rule="evenodd" d="M20.8313 18.2857L20.8425 18.2743L12.9675 4.56L12.9563 4.57143C12.765 4.22857 12.4163 4 12 4C11.5837 4 11.2463 4.22857 11.0438 4.57143L11.0325 4.56L3.1575 18.2743L3.16875 18.2857C3.0675 18.4571 3 18.64 3 18.8571C3 19.4857 3.50625 20 4.125 20H19.875C20.4938 20 21 19.4857 21 18.8571C21 18.64 20.9325 18.4571 20.8313 18.2857ZM13.125 17.7029H10.875V15.4171H13.125V17.7029ZM13.125 14.2743H10.875V8.56H13.125V14.2743Z" fill="#FFC000"/>
</svg>
